<svg width="104" height="33" viewBox="0 0 104 33" fill="none" xmlns="http://www.w3.org/2000/svg">
<g filter="url(#filter0_d_118_634)">
<path d="M22.116 9.44C21.9107 10.5973 21.4347 11.5587 20.688 12.324C19.9413 13.0893 19.0453 13.6213 18 13.92C18.9333 14.1253 19.6707 14.5827 20.212 15.292C20.7533 16.0013 21.024 16.832 21.024 17.784C21.024 18.0827 20.996 18.372 20.94 18.652C20.66 20.2947 19.8573 21.6013 18.532 22.572C17.2067 23.524 15.5173 24 13.464 24H4.308L7.78 4.344H16.628C18.4013 4.344 19.7733 4.708 20.744 5.436C21.7147 6.164 22.2 7.172 22.2 8.46C22.2 8.77733 22.172 9.104 22.116 9.44ZM14.276 12.324C15.0787 12.324 15.7227 12.1467 16.208 11.792C16.6933 11.4373 16.992 10.924 17.104 10.252C17.1227 10.14 17.132 9.99067 17.132 9.804C17.132 9.26267 16.9547 8.852 16.6 8.572C16.2453 8.27333 15.7227 8.124 15.032 8.124H11.896L11.168 12.324H14.276ZM16.18 18.008C16.2173 17.784 16.236 17.616 16.236 17.504C16.236 16.9627 16.04 16.5427 15.648 16.244C15.256 15.9267 14.7147 15.768 14.024 15.768H10.552L9.768 20.192H13.296C14.1173 20.192 14.7707 20.0053 15.256 19.632C15.7413 19.2587 16.0493 18.7173 16.18 18.008ZM38.417 20.528H31.081L29.289 24H24.277L34.861 4.344H40.405L44.045 24H38.977L38.417 20.528ZM37.857 16.888L36.709 9.608L32.957 16.888H37.857ZM54.4416 20.36H60.7136L60.0696 24H49.0096L52.4816 4.344H57.2696L54.4416 20.36ZM78.0053 20.528H70.6693L68.8773 24H63.8653L74.4493 4.344H79.9933L83.6333 24H78.5653L78.0053 20.528ZM77.4453 16.888L76.2973 9.608L72.5453 16.888H77.4453Z" fill="white"/>
<path d="M96.52 24.224C95.7733 24.224 95.176 24.028 94.728 23.636C94.2987 23.2253 94.084 22.712 94.084 22.096C94.084 21.2373 94.4013 20.5093 95.036 19.912C95.6893 19.3147 96.492 19.016 97.444 19.016C98.172 19.016 98.7507 19.2213 99.18 19.632C99.6093 20.024 99.824 20.5373 99.824 21.172C99.824 22.012 99.4973 22.7307 98.844 23.328C98.2093 23.9253 97.4347 24.224 96.52 24.224Z" fill="#007DFA"/>
</g>
<defs>
<filter id="filter0_d_118_634" x="0" y="0" width="106" height="36" filterUnits="userSpaceOnUse" color-interpolation-filters="sRGB">
<feFlood flood-opacity="0" result="BackgroundImageFix"/>
<feColorMatrix in="SourceAlpha" type="matrix" values="0 0 0 0 0 0 0 0 0 0 0 0 0 0 0 0 0 0 127 0" result="hardAlpha"/>
<feOffset dy="4"/>
<feGaussianBlur stdDeviation="2"/>
<feComposite in2="hardAlpha" operator="out"/>
<feColorMatrix type="matrix" values="0 0 0 0 0 0 0 0 0 0 0 0 0 0 0 0 0 0 0.25 0"/>
<feBlend mode="normal" in2="BackgroundImageFix" result="effect1_dropShadow_118_634"/>
<feBlend mode="normal" in="SourceGraphic" in2="effect1_dropShadow_118_634" result="shape"/>
</filter>
</defs>
</svg>
